<?xml version="1.0" encoding="utf-8"?>
<!-- Generator: Adobe Illustrator 19.2.1, SVG Export Plug-In . SVG Version: 6.00 Build 0)  -->
<svg version="1.1" id="Layer_1" xmlns="http://www.w3.org/2000/svg" xmlns:xlink="http://www.w3.org/1999/xlink" x="0px" y="0px"
	 viewBox="0 0 300 300" style="enable-background:new 0 0 300 300;" xml:space="preserve">
<style type="text/css">
	.st0{fill:#D669AF;}
	.st1{fill:#B73482;}
	.st2{fill:#982063;}
	.st3{fill:#5B0E3C;}
	.st4{opacity:0.3;fill:#0A1A28;}
	.st5{fill:#FFB7B3;}
	.st6{fill:#FF8976;}
	.st7{fill:#F86041;}
	.st8{fill:#DD513A;}
	.st9{fill:#FFCB97;}
	.st10{fill:#FFA747;}
	.st11{fill:#EA8C2F;}
	.st12{fill:#CC701D;}
</style>
<g>
	<path class="st0" d="M245.1,196.6l-46.5-80.5L240.4,92c12.5-7.2,28.6-2.9,35.8,9.6l20.3,35.1c7.2,12.5,2.9,28.6-9.6,35.8
		L245.1,196.6z"/>
	<rect x="144.4" y="137" transform="matrix(0.5 0.866 -0.866 0.5 246.3531 -78.2023)" class="st1" width="93" height="74.5"/>
	<rect x="80.7" y="173.8" transform="matrix(0.5 0.866 -0.866 0.5 246.3531 -4.6237)" class="st2" width="93" height="74.5"/>
	<path class="st3" d="M40.7,284.4l-20.3-35.1c-7.2-12.5-2.9-28.6,9.6-35.8l41.8-24.1l46.5,80.5L76.5,294
		C64,301.2,47.9,296.9,40.7,284.4z"/>
</g>
<polygon class="st4" points="91,286 102.5,278.8 208.9,110.5 187,123 "/>
<g>
	<path class="st5" d="M191.9,116.3l-80.5-46.5l24.1-41.8c7.2-12.5,23.3-16.8,35.8-9.6l35.1,20.3C219,46,223.3,62,216,74.6
		L191.9,116.3z"/>
	<rect x="87.3" y="86.8" transform="matrix(0.866 0.5 -0.5 0.866 79.9378 -50.2711)" class="st6" width="93" height="74.5"/>
	<rect x="50.5" y="150.5" transform="matrix(0.866 0.5 -0.5 0.866 106.8694 -23.3395)" class="st7" width="93" height="74.5"/>
	<path class="st8" d="M58.8,294.5l-35.1-20.3C11.1,267,6.8,251,14,238.4l24.1-41.8l80.5,46.5l-24.1,41.8
		C87.3,297.5,71.3,301.8,58.8,294.5z"/>
</g>
<polygon class="st4" points="95.7,283 102.5,271.7 110,72 97.3,93.8 "/>
<g>
	<path class="st9" d="M98,77.1H5V28.9C5,14.4,16.7,2.6,31.2,2.6h40.5C86.3,2.6,98,14.4,98,28.9V77.1z"/>
	<rect x="5" y="75.6" class="st10" width="93" height="74.5"/>
	<rect x="5" y="149.2" class="st11" width="93" height="74.5"/>
	<path class="st12" d="M71.8,298H31.2C16.7,298,5,286.3,5,271.8v-48.2h93v48.2C98,286.3,86.3,298,71.8,298z"/>
</g>
</svg>
